<svg width="28" height="28" viewBox="0 0 28 28" fill="none" xmlns="http://www.w3.org/2000/svg">
<path d="M14 0C6.26837 0 0 6.26837 0 14C0 21.7195 6.28115 28 14 28C21.731 28 28 21.731 28 14C28 6.28048 21.7195 0 14 0ZM21.2692 16.1538H13.1923C13.1209 16.1538 13.0524 16.1255 13.0019 16.075C12.9514 16.0245 12.9231 15.956 12.9231 15.8846V4.57692C12.9231 4.50552 12.9514 4.43704 13.0019 4.38655C13.0524 4.33606 13.1209 4.30769 13.1923 4.30769H14.8077C14.8791 4.30769 14.9476 4.33606 14.9981 4.38655C15.0486 4.43704 15.0769 4.50552 15.0769 4.57692V14H21.2692C21.3406 14 21.4091 14.0284 21.4596 14.0789C21.5101 14.1293 21.5385 14.1978 21.5385 14.2692V15.8846C21.5385 15.956 21.5101 16.0245 21.4596 16.075C21.4091 16.1255 21.3406 16.1538 21.2692 16.1538Z" fill="#253195"/>
</svg>
