<svg width="56" height="53" viewBox="0 0 56 53" fill="none" xmlns="http://www.w3.org/2000/svg">
<rect width="56" height="53" rx="11" fill="#253195"/>
<path d="M21.7438 9.67624L24.2755 10.7059C24.6508 10.8586 25.0365 10.9844 25.4296 11.0825C26.7444 11.4106 28.1183 11.4223 29.4385 11.1167L30.2225 10.9352L30.6688 10.7682C32.6108 10.0416 34.6115 9.48272 36.6489 9.09781C39.867 8.7685 41.8105 11.3606 42.8214 13.8598C43.5443 15.6469 43.9215 17.059 43.9873 18.9856C44.1208 22.8899 43.4756 27.5934 42.4064 31.3508C41.255 35.3969 39.4272 40.3715 37.49 42.2723C37.3963 42.3642 37.3029 42.4519 37.2098 42.5354C34.1956 45.2384 31.0399 40.7789 30.8038 36.7371L30.7911 36.524C30.7387 35.6616 30.5704 34.812 30.3256 33.9833C30.0558 33.0697 29.7399 32.0896 28.9183 31.6074C28.3618 31.2808 27.6025 31.0931 26.6561 31.3502C24.4018 31.9627 24.1326 38.6316 23.8971 39.3461C23.6616 40.0606 23.1906 44.8922 19.6577 43.7013C16.1249 42.5105 15.0483 35.9436 13.9043 33.9702C12.7603 31.9967 11.8519 22.5717 12.0201 18.3867C12.1884 14.2016 13.8707 11.9899 15.0483 10.2547C15.9903 8.86644 18.5138 8.905 19.6577 9.09781L21.7438 9.67624Z" fill="white"/>
</svg>
