<svg width="56" height="53" viewBox="0 0 56 53" fill="none" xmlns="http://www.w3.org/2000/svg">
<rect width="56" height="53" rx="11" fill="#253195"/>
<path d="M11 18.3289C11 16.9156 11.5598 15.5602 12.5563 14.5608C13.5527 13.5614 14.9042 13 16.3134 13H39.6866C41.0958 13 42.4473 13.5614 43.4437 14.5608C44.4402 15.5602 45 16.9156 45 18.3289V18.3432L27.9972 27.0784L11 18.3488V18.3289ZM11 20.7433V34.6711C11 36.0844 11.5598 37.4398 12.5563 38.4392C13.5527 39.4386 14.9042 40 16.3134 40H39.6866C41.0958 40 42.4473 39.4386 43.4437 38.4392C44.4402 37.4398 45 36.0844 45 34.6711V20.7391L28.4817 29.2256C28.3318 29.3026 28.1657 29.3428 27.9972 29.3428C27.8287 29.3428 27.6626 29.3026 27.5126 29.2256L11 20.7433Z" fill="white"/>
</svg>
