<svg width="56" height="53" viewBox="0 0 56 53" fill="none" xmlns="http://www.w3.org/2000/svg">
<rect width="56" height="53" rx="11" fill="#5A69EB" fill-opacity="0.3"/>
<path d="M22.4182 9.93925C24.9055 8.38548 27.079 9.01107 28.3835 10.0089C28.9184 10.4169 29.1867 10.6209 29.3436 10.6209C29.5006 10.6209 29.7689 10.4169 30.3038 10.0089C31.6083 9.01107 33.7801 8.38548 36.2691 9.93925C39.5361 11.9792 40.2752 18.7043 32.7423 24.3788C31.3062 25.4599 30.589 26.0005 29.3436 26.0005C28.0983 26.0005 27.3811 25.4599 25.9467 24.3788C18.4121 18.7043 19.1512 11.9775 22.4182 9.93925Z" stroke="#253195" stroke-width="1.5" stroke-linecap="round"/>
<path d="M15 29.4004H19.0415C19.5377 29.4004 20.027 29.5126 20.4708 29.7302L23.9167 31.4098C24.3605 31.6256 24.8499 31.7378 25.3477 31.7378H27.1061C28.8071 31.7378 30.1874 33.0825 30.1874 34.7417C30.1874 34.8097 30.1419 34.8675 30.076 34.8862L25.7881 36.0813C25.0187 36.2954 24.1983 36.2205 23.4796 35.8705L19.7958 34.0753" stroke="#253195" stroke-width="1.5" stroke-linecap="round" stroke-linejoin="round"/>
<path d="M30.1874 33.6504L37.9381 31.2517C38.6128 31.0431 39.3357 31.0546 40.0036 31.2845C40.6715 31.5144 41.2503 31.9509 41.6573 32.5318C42.28 33.3988 42.0269 34.6432 41.119 35.1701L28.4375 42.5429C28.041 42.774 27.6019 42.9214 27.147 42.9761C26.6921 43.0307 26.2309 42.9915 25.7915 42.8608L15 39.6343" stroke="#253195" stroke-width="1.5" stroke-linecap="round" stroke-linejoin="round"/>
</svg>
