<svg width="56" height="53" viewBox="0 0 56 53" fill="none" xmlns="http://www.w3.org/2000/svg">
<rect width="56" height="53" rx="11" fill="#5A69EB" fill-opacity="0.3"/>
<path d="M27.9895 10.0007C28.5482 10.0007 29.0984 10.0369 29.6101 10.122C30.1144 10.1869 30.6118 10.2965 31.0965 10.4497C31.5798 10.5945 32.0589 10.781 32.5338 11.0094C32.9965 11.2286 33.472 11.4967 33.9476 11.7883C34.7515 12.299 35.5427 12.7118 36.3487 13.0417C37.9352 13.6768 39.6134 14.0539 41.3195 14.1589C42.1824 14.2227 43.0759 14.2553 44 14.2568V22.7688C44 24.3847 43.7932 25.9211 43.3795 27.3781C42.982 28.8171 42.4173 30.2047 41.6969 31.5128C40.9797 32.8192 40.1308 34.0491 39.1636 35.1836C38.1821 36.3445 37.1189 37.434 35.9819 38.4438C34.829 39.4553 33.6163 40.3968 32.3504 41.2634C31.0823 42.143 29.807 42.9537 28.5247 43.6957L28.0129 44L27.5011 43.6957C26.1857 42.936 24.901 42.1246 23.6499 41.2634C22.3772 40.4061 21.1639 39.4641 20.0183 38.4438C18.8822 37.4339 17.8196 36.3444 16.8388 35.1836C15.8749 34.0438 15.0223 32.8146 14.2927 31.5128C13.5853 30.1986 13.0212 28.8124 12.6102 27.3781C12.1966 25.8767 11.9914 24.3258 12.0003 22.7688V14.2568C12.9243 14.2553 13.8186 14.2227 14.6829 14.1589C15.5353 14.1011 16.3821 13.9794 17.2163 13.795C18.033 13.612 18.8497 13.3694 19.6537 13.0417C20.4877 12.7052 21.2875 12.2898 22.042 11.801C22.9803 11.1924 23.9314 10.7434 24.8697 10.4476C25.8803 10.1388 26.9327 9.98807 27.9895 10.0007ZM41.8547 16.3486C40.2406 16.2698 38.6415 16.0005 37.0908 15.5463C35.5489 15.0862 34.08 14.4106 32.7278 13.5396C32.0262 13.0813 31.2649 12.7211 30.4653 12.4692C29.666 12.2287 28.835 12.1096 28.0001 12.116C27.1591 12.1109 26.3219 12.2299 25.5158 12.4692C24.7152 12.7136 23.955 13.0743 23.2597 13.5396C21.9046 14.4144 20.4321 15.0929 18.886 15.5548C17.3748 15.9932 15.7904 16.2614 14.1327 16.3592V22.7795C14.1327 24.1882 14.3161 25.5416 14.6829 26.8397C15.0569 28.1285 15.5718 29.3724 16.2183 30.5488C16.8728 31.7374 17.6443 32.858 18.5213 33.8941C19.4106 34.9389 20.3595 35.9114 21.3831 36.835C22.4067 37.7585 23.4793 38.614 24.601 39.4014C25.734 40.1901 26.8671 40.9115 28.0001 41.5656C29.1601 40.8928 30.2907 40.1708 31.3886 39.4014C32.519 38.6162 33.5975 37.7589 34.6172 36.835C35.6408 35.9114 36.5918 34.9389 37.4811 33.8941C38.3581 32.858 39.1296 31.7374 39.7841 30.5488C40.4274 29.3736 40.9346 28.1293 41.296 26.8397C41.6744 25.5196 41.8625 24.1525 41.8547 22.7795V16.3486Z" fill="#253195"/>
<path fill-rule="evenodd" clip-rule="evenodd" d="M35.9393 20.0214L35.0011 19.217L34.1353 19.2915L24.8377 30.2465L21.671 25.7351L20.818 25.5904L19.8307 26.2948L19.6836 27.146L23.7544 32.947L24.2172 33.2023L25.1917 33.2619L25.6907 33.0449L36.0012 20.8833L35.9393 20.0214Z" fill="#253195"/>
</svg>
