<svg width="56" height="53" viewBox="0 0 56 53" fill="none" xmlns="http://www.w3.org/2000/svg">
<rect width="56" height="53" rx="11" fill="#5A69EB" fill-opacity="0.3"/>
<path d="M30.6303 16.3596C30.63 18.3116 29.8661 20.1835 28.5065 21.5637C27.1469 22.9439 25.303 23.7192 23.3803 23.7192C22.4283 23.7195 21.4855 23.5293 20.6058 23.1597C19.7261 22.79 18.9267 22.248 18.2533 21.5647C17.58 20.8814 17.0457 20.0701 16.6812 19.1772C16.3166 18.2842 16.1288 17.3271 16.1286 16.3605V16.3596C16.1288 14.4076 16.8928 12.5357 18.2524 11.1555C19.612 9.77536 21.4559 9 23.3785 9C24.3307 8.99976 25.2736 9.18994 26.1533 9.55967C27.0331 9.92941 27.8325 10.4715 28.5059 11.1549C29.1793 11.8383 29.7135 12.6497 30.078 13.5427C30.4425 14.4358 30.6302 15.3929 30.6303 16.3596ZM35.8609 41.5683C35.8338 42.1959 35.1477 42.4238 34.2733 42.5479C28.5865 43.3492 18.5063 43.0992 15.7729 41.6869C10.8672 39.1525 11.0817 34.0433 14.4849 30.0901C17.6257 26.4438 22.3232 25.4349 26.6315 26.3271C30.8041 27.1928 36.2058 33.5406 35.8609 41.5683Z" stroke="#253195" stroke-width="1.5" stroke-linecap="round" stroke-linejoin="round"/>
<path d="M33.5664 32.0925C35.9469 30.8584 40.028 30.8915 42.289 33.1768C44.6558 35.5669 44.3209 38.1454 42.7759 40.0136C41.5269 41.5252 37.1706 42.4423 35.1458 42.3504M41.993 24.2679C41.9928 25.509 41.507 26.6993 40.6426 27.5769C39.7781 28.4545 38.6058 28.9477 37.3833 28.9479C36.7778 28.9481 36.1783 28.8271 35.6189 28.592C35.0595 28.3568 34.5513 28.0121 34.1231 27.5775C33.695 27.1429 33.3553 26.6269 33.1236 26.0591C32.8919 25.4912 32.7726 24.8826 32.7726 24.2679C32.7726 23.0264 33.2584 21.8358 34.1231 20.9579C34.9877 20.0801 36.1605 19.5869 37.3833 19.5869C38.6061 19.5869 39.7788 20.0801 40.6435 20.9579C41.5081 21.8358 41.993 23.0264 41.993 24.2679Z" stroke="#253195" stroke-width="1.5" stroke-linecap="round" stroke-linejoin="round"/>
</svg>
