<svg width="56" height="53" viewBox="0 0 56 53" fill="none" xmlns="http://www.w3.org/2000/svg">
<rect width="56" height="53" rx="11" fill="#5A69EB" fill-opacity="0.3"/>
<path d="M31.3997 14.0998C30.5497 14.9499 28.8446 14.8003 26.2997 12.699M26.2997 12.699C26.676 12.3908 27.0664 12.036 27.471 11.6348C31.3912 7.75201 36.7293 8.51192 39.23 11.6348C40.2942 12.9642 42.3801 15.5126 41.2955 21.7499M26.2997 12.699C25.9234 12.3908 25.533 12.036 25.1284 11.6348C21.2082 7.75201 15.8702 8.51192 13.3694 11.6348C11.6422 13.7938 7.22221 19.1659 18.0411 38.308C18.4899 39.1002 19.3824 39.6 20.3429 39.6C21.8763 39.6 23.0748 38.376 23.1241 36.948C23.2023 34.7329 23.6307 32.2644 24.8258 31.0999M34.7997 34.5L35.9626 35.6628C36.2125 35.9127 36.3383 36.0385 36.4896 36.03C36.6426 36.0215 36.7531 35.8838 36.9741 35.6067L39.8998 31.9499M29.6997 31.8717V32.5279C29.6997 34.5714 29.6997 35.5931 29.9513 36.5281C30.2657 37.6878 30.8573 38.7537 31.6751 39.634C32.3381 40.3514 33.2153 40.909 34.9681 42.0259C35.7518 42.5257 36.1445 42.7756 36.5627 42.8929C37.0778 43.0357 37.6235 43.0357 38.1386 42.8929C38.5551 42.7756 38.9478 42.5257 39.7315 42.0259C41.4842 40.909 42.3614 40.3514 43.0244 39.634C43.8423 38.7537 44.4338 37.6878 44.7482 36.5281C44.9998 35.5931 44.9998 34.5731 44.9998 32.5279V31.8717C44.9998 30.6001 44.9998 29.9643 44.7584 29.4271C44.6069 29.0955 44.3941 28.7956 44.1311 28.5431C43.701 28.1351 43.0907 27.9107 41.8701 27.4636L39.3643 26.5456C38.3681 26.1818 37.87 25.9999 37.3498 25.9999C36.8296 25.9999 36.3315 26.1818 35.3353 26.5473L32.8294 27.4653C31.6088 27.9107 30.9985 28.1334 30.5684 28.5431C30.3048 28.7954 30.0914 29.0954 29.9394 29.4271C29.6997 29.9643 29.6997 30.6001 29.6997 31.8717Z" stroke="#253195" stroke-width="1.5" stroke-linecap="round" stroke-linejoin="round"/>
</svg>
