<svg width="28" height="35" viewBox="0 0 28 35" fill="none" xmlns="http://www.w3.org/2000/svg">
<path d="M11.0678 32.7895C12.0104 33.5772 12.9936 34.2973 14 35C15.0086 34.3066 15.9869 33.5691 16.9322 32.7895C18.508 31.4789 19.991 30.0579 21.3702 28.537C24.5498 25.0155 28 19.9106 28 14.1802C28 12.3181 27.6379 10.4741 26.9343 8.7537C26.2307 7.03327 25.1995 5.47006 23.8995 4.1533C22.5995 2.83654 21.0561 1.79203 19.3576 1.07941C17.659 0.366783 15.8385 0 14 0C12.1615 0 10.341 0.366783 8.64243 1.07941C6.94387 1.79203 5.40053 2.83654 4.1005 4.1533C2.80048 5.47006 1.76925 7.03327 1.06569 8.7537C0.362121 10.4741 -2.73959e-08 12.3181 0 14.1802C0 19.9106 3.45022 25.014 6.62978 28.537C8.00896 30.0585 9.49195 31.4784 11.0678 32.7895ZM14 19.3009C12.6592 19.3009 11.3733 18.7614 10.4252 17.8011C9.47708 16.8408 8.94444 15.5383 8.94444 14.1802C8.94444 12.8222 9.47708 11.5197 10.4252 10.5594C11.3733 9.5991 12.6592 9.0596 14 9.0596C15.3408 9.0596 16.6267 9.5991 17.5748 10.5594C18.5229 11.5197 19.0556 12.8222 19.0556 14.1802C19.0556 15.5383 18.5229 16.8408 17.5748 17.8011C16.6267 18.7614 15.3408 19.3009 14 19.3009Z" fill="#253195"/>
</svg>
